<svg width="35" height="35" viewBox="0 0 35 35" fill="none" xmlns="http://www.w3.org/2000/svg">
<g id="apple">
<path id="bg" d="M32.6762 17.063C32.6762 25.3045 26.0356 31.9932 17.8369 31.9932C9.63815 31.9932 2.99756 25.3045 2.99756 17.063C2.99756 8.81408 9.63815 2.13281 17.8369 2.13281C26.0356 2.13281 32.6762 8.81408 32.6762 17.063Z" fill="#283544"/>
<path id="apple_2" d="M24.7924 13.2851C24.7114 13.3326 22.7838 14.3356 22.7838 16.5596C22.8746 19.0958 25.2164 19.9853 25.2565 19.9853C25.2164 20.0328 24.903 21.1969 23.9747 22.4172C23.238 23.4684 22.4203 24.5282 21.1787 24.5282C19.9976 24.5282 19.5736 23.8276 18.2108 23.8276C16.7473 23.8276 16.3332 24.5282 15.2127 24.5282C13.971 24.5282 13.0928 23.4116 12.3159 22.3703C11.3066 21.0074 10.4488 18.8687 10.4185 16.8151C10.3981 15.7269 10.6206 14.6572 11.1855 13.7486C11.9828 12.4802 13.4061 11.6191 14.9605 11.5908C16.1515 11.5531 17.2114 12.3574 17.9383 12.3574C18.6348 12.3574 19.937 11.5908 21.4104 11.5908C22.0464 11.5914 23.7423 11.771 24.7924 13.2851ZM17.8375 11.3735C17.6255 10.3797 18.2108 9.38595 18.7559 8.75204C19.4525 7.98543 20.5526 7.46509 21.5013 7.46509C21.5619 8.45885 21.178 9.43348 20.492 10.1433C19.8765 10.9099 18.8165 11.4871 17.8375 11.3735Z" fill="white"/>
</g>
</svg>
