<svg width="34" height="35" viewBox="0 0 34 35" fill="none" xmlns="http://www.w3.org/2000/svg">
<g id="google">
<path id="vector" d="M31.877 17.3947C31.877 16.1671 31.776 15.2713 31.5574 14.3423H17.3406V19.883H25.6855C25.5173 21.2599 24.6088 23.3336 22.5898 24.727L22.5615 24.9125L27.0566 28.346L27.368 28.3767C30.2282 25.7722 31.877 21.9401 31.877 17.3947Z" fill="#4285F4"/>
<path id="vector_2" d="M17.3395 31.9933C21.4278 31.9933 24.86 30.6661 27.3669 28.3769L22.5887 24.7271C21.3101 25.6064 19.5939 26.2202 17.3395 26.2202C13.3353 26.2202 9.93673 23.6157 8.72524 20.0159L8.54767 20.0307L3.87363 23.5974L3.8125 23.765C6.30251 28.6422 11.4172 31.9933 17.3395 31.9933Z" fill="#34A853"/>
<path id="vector_3" d="M8.72612 20.0159C8.40646 19.0869 8.22146 18.0915 8.22146 17.063C8.22146 16.0344 8.40646 15.0391 8.7093 14.1101L8.70083 13.9123L3.96821 10.2883L3.81336 10.361C2.78711 12.3849 2.19824 14.6576 2.19824 17.063C2.19824 19.4684 2.78711 21.7411 3.81336 23.765L8.72612 20.0159Z" fill="#FBBC05"/>
<path id="vector_4" d="M17.3396 7.90579C20.1829 7.90579 22.1008 9.11679 23.1945 10.1288L27.4679 6.01467C24.8434 3.60925 21.4279 2.13281 17.3396 2.13281C11.4172 2.13281 6.30252 5.48379 3.8125 10.361L8.70845 14.1102C9.93676 10.5103 13.3353 7.90579 17.3396 7.90579Z" fill="#EB4335"/>
</g>
</svg>
